<svg width="20" height="20" viewBox="0 0 20 20" fill="none" xmlns="http://www.w3.org/2000/svg">
<path d="M12.6433 5.83333L7.15501 11.3217C6.99582 11.4754 6.86885 11.6593 6.7815 11.8627C6.69416 12.066 6.64818 12.2847 6.64626 12.506C6.64433 12.7273 6.6865 12.9468 6.7703 13.1516C6.8541 13.3564 6.97786 13.5425 7.13435 13.699C7.29084 13.8555 7.47692 13.9792 7.68175 14.063C7.88658 14.1468 8.10604 14.189 8.32734 14.1871C8.54864 14.1852 8.76734 14.1392 8.97068 14.0518C9.17402 13.9645 9.35793 13.8375 9.51167 13.6783L14.8567 8.18999C15.4639 7.56132 15.7998 6.71931 15.7923 5.84532C15.7847 4.97133 15.4341 4.13529 14.8161 3.51727C14.198 2.89924 13.362 2.54868 12.488 2.54108C11.614 2.53349 10.772 2.86947 10.1433 3.47666L4.79751 8.96416C3.85974 9.90192 3.33292 11.1738 3.33292 12.5C3.33292 13.8262 3.85974 15.0981 4.79751 16.0358C5.73527 16.9736 7.00714 17.5004 8.33334 17.5004C9.65953 17.5004 10.9314 16.9736 11.8692 16.0358L17.0833 10.8333" stroke="#D1D6E2" stroke-linecap="round" stroke-linejoin="round"/>
</svg>
