<svg width="18" height="18" viewBox="0 0 18 18" fill="none" xmlns="http://www.w3.org/2000/svg">
<path d="M9 4.875C8.18415 4.875 7.38663 5.11693 6.70827 5.57019C6.02992 6.02345 5.50121 6.66769 5.189 7.42143C4.87679 8.17518 4.7951 9.00458 4.95426 9.80475C5.11343 10.6049 5.50629 11.3399 6.08318 11.9168C6.66008 12.4937 7.39508 12.8866 8.19525 13.0457C8.99542 13.2049 9.82482 13.1232 10.5786 12.811C11.3323 12.4988 11.9766 11.9701 12.4298 11.2917C12.8831 10.6134 13.125 9.81585 13.125 9C13.125 7.90598 12.6904 6.85677 11.9168 6.08318C11.1432 5.3096 10.094 4.875 9 4.875ZM9 12.375C8.33249 12.375 7.67997 12.1771 7.12495 11.8062C6.56993 11.4354 6.13735 10.9083 5.88191 10.2916C5.62646 9.67486 5.55962 8.99626 5.68985 8.34157C5.82007 7.68688 6.14151 7.08552 6.61351 6.61351C7.08552 6.14151 7.68688 5.82007 8.34157 5.68985C8.99626 5.55962 9.67486 5.62646 10.2916 5.88191C10.9083 6.13735 11.4354 6.56993 11.8062 7.12495C12.1771 7.67997 12.375 8.33249 12.375 9C12.375 9.89511 12.0194 10.7535 11.3865 11.3865C10.7535 12.0194 9.89511 12.375 9 12.375ZM13.125 0H4.875C3.58207 0 2.34209 0.513614 1.42785 1.42785C0.513614 2.34209 0 3.58207 0 4.875V13.125C0 13.7652 0.126096 14.3991 0.371087 14.9906C0.616079 15.582 0.975169 16.1195 1.42785 16.5721C2.34209 17.4864 3.58207 18 4.875 18H13.125C13.7652 18 14.3991 17.8739 14.9906 17.6289C15.582 17.3839 16.1195 17.0248 16.5721 16.5721C17.0248 16.1195 17.3839 15.582 17.6289 14.9906C17.8739 14.3991 18 13.7652 18 13.125V4.875C18 4.23481 17.8739 3.60088 17.6289 3.00942C17.3839 2.41796 17.0248 1.88054 16.5721 1.42785C16.1195 0.975169 15.582 0.616079 14.9906 0.371087C14.3991 0.126096 13.7652 0 13.125 0ZM17.25 13.125C17.25 14.219 16.8154 15.2682 16.0418 16.0418C15.2682 16.8154 14.219 17.25 13.125 17.25H4.875C3.78098 17.25 2.73177 16.8154 1.95818 16.0418C1.1846 15.2682 0.75 14.219 0.75 13.125V4.875C0.75 3.78098 1.1846 2.73177 1.95818 1.95818C2.73177 1.1846 3.78098 0.75 4.875 0.75H13.125C14.219 0.75 15.2682 1.1846 16.0418 1.95818C16.8154 2.73177 17.25 3.78098 17.25 4.875V13.125ZM14.625 4.125C14.625 4.27334 14.581 4.41834 14.4986 4.54168C14.4162 4.66501 14.2991 4.76114 14.162 4.81791C14.025 4.87468 13.8742 4.88953 13.7287 4.86059C13.5832 4.83165 13.4496 4.76022 13.3447 4.65533C13.2398 4.55044 13.1684 4.4168 13.1394 4.27132C13.1105 4.12583 13.1253 3.97503 13.1821 3.83799C13.2389 3.70094 13.335 3.58381 13.4583 3.5014C13.5817 3.41899 13.7267 3.375 13.875 3.375C14.0739 3.375 14.2647 3.45402 14.4053 3.59467C14.546 3.73532 14.625 3.92609 14.625 4.125Z" fill="white"/>
</svg>
