<svg width="20" height="19" viewBox="0 0 20 19" fill="none" xmlns="http://www.w3.org/2000/svg">
<path d="M19.4313 1.26238C19.2765 1.12872 19.0882 1.03976 18.8867 1.00507C18.6852 0.970387 18.478 0.99128 18.2875 1.06551L0.990625 7.86238C0.765839 7.95182 0.575872 8.11133 0.448905 8.31726C0.321938 8.52319 0.264736 8.76456 0.285784 9.00557C0.306833 9.24658 0.405011 9.47438 0.565753 9.65518C0.726496 9.83598 0.941239 9.96015 1.17812 10.0093L5.875 10.9561V16.7499C5.87215 16.9731 5.93689 17.1919 6.0607 17.3776C6.18452 17.5634 6.36163 17.7073 6.56875 17.7905C6.70895 17.8463 6.85848 17.8749 7.00937 17.8749C7.15582 17.875 7.30084 17.8461 7.43603 17.7898C7.57121 17.7335 7.69386 17.6509 7.79688 17.5468L10.4781 14.8655L14.4344 18.3436C14.6371 18.5272 14.9015 18.6276 15.175 18.6249C15.2929 18.6246 15.4099 18.6056 15.5219 18.5686C15.7062 18.5082 15.8719 18.4014 16.0032 18.2586C16.1345 18.1158 16.227 17.9417 16.2719 17.753L19.7969 2.35926C19.843 2.16049 19.8333 1.95284 19.7688 1.75925C19.7042 1.56567 19.5874 1.39371 19.4313 1.26238ZM1.02812 8.94051C1.01697 8.85925 1.0342 8.77664 1.0769 8.70661C1.1196 8.63658 1.18516 8.58343 1.2625 8.55614L17.125 2.33113L6.16562 10.2436L1.32812 9.27801C1.24755 9.26347 1.17419 9.2223 1.1198 9.16111C1.0654 9.09991 1.03312 9.02223 1.02812 8.94051ZM7.2625 17.0124C7.21156 17.0653 7.14585 17.1017 7.07395 17.1167C7.00204 17.1318 6.92727 17.1248 6.85938 17.0968C6.79025 17.0688 6.73103 17.0209 6.68928 16.9591C6.64753 16.8973 6.62515 16.8245 6.625 16.7499V11.4718L9.91562 14.3686L7.2625 17.0124ZM19.0656 2.19988L15.5406 17.5843C15.5266 17.6481 15.4957 17.7069 15.4512 17.7547C15.4066 17.8026 15.3501 17.8376 15.2875 17.8561C15.227 17.8779 15.1617 17.8824 15.0987 17.8691C15.0358 17.8559 14.9778 17.8254 14.9313 17.7811L6.85 10.6749L19.0094 1.89051C19.04 1.9352 19.0609 1.98586 19.0706 2.03918C19.0803 2.0925 19.0786 2.14727 19.0656 2.19988Z" fill="white"/>
</svg>
