<svg width="261" height="246" viewBox="0 0 261 246" fill="none" xmlns="http://www.w3.org/2000/svg">
<path d="M12.7393 214.557H149.577C155.869 214.557 160.988 209.426 160.988 203.121V58.2622C160.988 58.0868 160.912 57.9343 160.889 57.7666C160.868 57.6068 160.835 57.4488 160.79 57.2939C160.641 56.6441 160.321 56.0463 159.862 55.5632L106.62 2.20177C106.016 1.63056 105.245 1.26961 104.421 1.17251C104.261 1.15727 104.109 1.08102 103.934 1.08102H12.6937C6.3797 1.08102 1.23724 6.21208 1.23724 12.5173V203.121C1.23724 209.426 6.39492 214.557 12.7393 214.557ZM107.738 14.0955L148.003 54.4501H111.541C110.533 54.4501 109.565 54.0485 108.852 53.3336C108.139 52.6187 107.738 51.649 107.738 50.638V14.0955ZM8.84443 12.5173C8.84443 10.413 10.5713 8.70518 12.6937 8.70518H100.131V50.638C100.131 56.9432 105.25 62.0742 111.541 62.0742H153.381V203.121C153.381 204.132 152.98 205.102 152.267 205.817C151.554 206.532 150.586 206.933 149.577 206.933H12.7393C12.2338 206.939 11.7321 206.845 11.2628 206.657C10.7934 206.469 10.3657 206.19 10.004 205.836C9.64236 205.482 9.3538 205.06 9.15483 204.594C8.95586 204.128 8.85039 203.628 8.84443 203.121V12.5173Z" fill="#1BBDE3" fill-opacity="0.1"/>
<path d="M160.056 55.3798L160.051 55.3751L106.808 2.01364L106.808 2.01357L106.803 2.00837C106.158 1.39774 105.334 1.0118 104.452 0.907988L104.452 0.907923L104.446 0.907364C104.401 0.902991 104.356 0.89117 104.285 0.872355C104.274 0.869534 104.263 0.866557 104.251 0.863423C104.169 0.841879 104.059 0.814669 103.934 0.814669H12.6937C6.23308 0.814669 0.970889 6.0645 0.970889 12.5173V203.121C0.970889 209.575 6.24921 214.824 12.7393 214.824H149.577C156.016 214.824 161.255 209.573 161.255 203.121V58.2622C161.255 58.1373 161.227 58.0269 161.204 57.9421C161.179 57.8484 161.162 57.7925 161.153 57.7307C161.131 57.5606 161.096 57.3923 161.048 57.2273C160.888 56.5338 160.545 55.8959 160.056 55.3798ZM12.6937 8.97153H99.8643V50.638C99.8643 57.0897 105.103 62.3406 111.541 62.3406H153.115V203.121C153.115 204.062 152.742 204.964 152.078 205.628C151.415 206.293 150.515 206.667 149.577 206.667L12.7393 206.667L12.7361 206.667C12.2657 206.672 11.7987 206.585 11.3619 206.41C10.9251 206.235 10.527 205.975 10.1904 205.645C9.85367 205.316 9.58502 204.923 9.39977 204.489C9.21472 204.056 9.11653 203.591 9.11079 203.119V12.5173C9.11079 10.5626 10.7158 8.97153 12.6937 8.97153ZM108.004 50.638V14.7395L147.361 54.1837H111.541C110.604 54.1837 109.704 53.8103 109.04 53.1454C108.377 52.4805 108.004 51.5786 108.004 50.638Z" stroke="#1BBDE3" stroke-opacity="0.5" stroke-width="0.53271"/>
<path d="M35.4694 92.5708H126.756C127.764 92.5708 128.732 92.1692 129.445 91.4542C130.159 90.7393 130.559 89.7697 130.559 88.7587C130.559 87.7477 130.159 86.7781 129.445 86.0632C128.732 85.3482 127.764 84.9466 126.756 84.9466H35.4694C34.4607 84.9466 33.4932 85.3482 32.7799 86.0632C32.0666 86.7781 31.6658 87.7477 31.6658 88.7587C31.6658 89.7697 32.0666 90.7393 32.7799 91.4542C33.4932 92.1692 34.4607 92.5708 35.4694 92.5708ZM35.4694 123.067H126.756C127.764 123.067 128.732 122.666 129.445 121.951C130.159 121.236 130.559 120.266 130.559 119.255C130.559 118.244 130.159 117.275 129.445 116.56C128.732 115.845 127.764 115.443 126.756 115.443H35.4694C34.4607 115.443 33.4932 115.845 32.7799 116.56C32.0666 117.275 31.6658 118.244 31.6658 119.255C31.6658 120.266 32.0666 121.236 32.7799 121.951C33.4932 122.666 34.4607 123.067 35.4694 123.067ZM35.4694 62.0742H73.5054C74.5141 62.0742 75.4816 61.6725 76.1949 60.9576C76.9082 60.2427 77.309 59.2731 77.309 58.2621C77.309 57.2511 76.9082 56.2814 76.1949 55.5665C75.4816 54.8516 74.5141 54.45 73.5054 54.45H35.4694C34.4607 54.45 33.4932 54.8516 32.7799 55.5665C32.0666 56.2814 31.6658 57.2511 31.6658 58.2621C31.6658 59.2731 32.0666 60.2427 32.7799 60.9576C33.4932 61.6725 34.4607 62.0742 35.4694 62.0742ZM35.4694 153.564H126.756C127.764 153.564 128.732 153.162 129.445 152.447C130.159 151.733 130.559 150.763 130.559 149.752C130.559 148.741 130.159 147.771 129.445 147.056C128.732 146.341 127.764 145.94 126.756 145.94H35.4694C34.4607 145.94 33.4932 146.341 32.7799 147.056C32.0666 147.771 31.6658 148.741 31.6658 149.752C31.6658 150.763 32.0666 151.733 32.7799 152.447C33.4932 153.162 34.4607 153.564 35.4694 153.564ZM35.4694 184.061H126.756C127.764 184.061 128.732 183.659 129.445 182.944C130.159 182.229 130.559 181.26 130.559 180.249C130.559 179.238 130.159 178.268 129.445 177.553C128.732 176.838 127.764 176.436 126.756 176.436H35.4694C34.4607 176.436 33.4932 176.838 32.7799 177.553C32.0666 178.268 31.6658 179.238 31.6658 180.249C31.6658 181.26 32.0666 182.229 32.7799 182.944C33.4932 183.659 34.4607 184.061 35.4694 184.061Z" fill="#1BBDE3" fill-opacity="0.1"/>
<path d="M164.792 39.2017H199.024V81.1346C199.024 87.4398 204.144 92.5708 210.435 92.5708H252.275V233.618C252.275 234.629 251.874 235.598 251.161 236.313C250.447 237.028 249.48 237.43 248.471 237.43H111.633C111.127 237.436 110.626 237.342 110.156 237.154C109.687 236.965 109.259 236.686 108.898 236.332C108.536 235.978 108.247 235.556 108.048 235.091C107.849 234.625 107.744 234.124 107.738 233.618V225.993C107.738 224.982 107.337 224.013 106.624 223.298C105.911 222.583 104.943 222.181 103.934 222.181C102.926 222.181 101.958 222.583 101.245 223.298C100.532 224.013 100.131 224.982 100.131 225.993V233.618C100.131 239.923 105.289 245.054 111.633 245.054H248.471C254.762 245.054 259.882 239.923 259.882 233.618V88.7587C259.882 88.5834 259.806 88.4309 259.783 88.2632C259.762 88.1034 259.729 87.9454 259.684 87.7905C259.535 87.1407 259.214 86.5429 258.756 86.0598L205.513 32.6983C204.914 32.1224 204.14 31.7629 203.315 31.6767C203.155 31.6538 203.003 31.5776 202.828 31.5776H164.792C163.783 31.5776 162.816 31.9792 162.102 32.6941C161.389 33.409 160.988 34.3786 160.988 35.3897C160.988 36.4007 161.389 37.3703 162.102 38.0852C162.816 38.8001 163.783 39.2017 164.792 39.2017ZM210.435 84.9467C209.426 84.9467 208.459 84.545 207.745 83.8301C207.032 83.1152 206.631 82.1456 206.631 81.1346V44.592L246.896 84.9467H210.435Z" fill="#1BBDE3" fill-opacity="0.1"/>
<path d="M164.792 39.4681H198.758V81.1346C198.758 87.5863 203.996 92.8372 210.435 92.8372H252.008V233.618C252.008 234.558 251.635 235.46 250.972 236.125C250.309 236.79 249.409 237.163 248.471 237.163L111.633 237.163L111.63 237.163C111.159 237.169 110.692 237.082 110.256 236.906C109.819 236.731 109.421 236.471 109.084 236.142C108.747 235.812 108.479 235.42 108.293 234.986C108.108 234.553 108.01 234.087 108.004 233.616V225.993C108.004 224.912 107.576 223.875 106.813 223.11C106.049 222.345 105.014 221.915 103.934 221.915C102.855 221.915 101.82 222.345 101.056 223.11C100.293 223.875 99.8645 224.912 99.8645 225.993V233.618C99.8645 240.071 105.143 245.32 111.633 245.32H248.471C254.91 245.32 260.148 240.069 260.148 233.618V88.7587C260.148 88.6339 260.121 88.5235 260.098 88.4387C260.073 88.3449 260.055 88.2891 260.047 88.2273C260.024 88.0571 259.989 87.8888 259.942 87.7238C259.782 87.0303 259.439 86.3924 258.949 85.8764L258.944 85.8717L205.702 32.5102L205.702 32.5102L205.698 32.5063C205.057 31.8906 204.231 31.5058 203.348 31.4124C203.305 31.4058 203.264 31.3943 203.205 31.3778C203.188 31.3729 203.169 31.3675 203.147 31.3617C203.063 31.3385 202.953 31.3112 202.828 31.3112H164.792C163.712 31.3112 162.677 31.7411 161.914 32.506C161.151 33.2709 160.722 34.3082 160.722 35.3897C160.722 36.4711 161.151 37.5084 161.914 38.2733C162.677 39.0383 163.712 39.4681 164.792 39.4681ZM210.435 84.6803C209.497 84.6803 208.597 84.3069 207.934 83.642C207.271 82.9771 206.898 82.0752 206.898 81.1346V45.2361L246.254 84.6803H210.435Z" stroke="#1BBDE3" stroke-opacity="0.5" stroke-width="0.53271"/>
<path d="M180.006 123.067H225.649C226.658 123.067 227.625 122.666 228.339 121.951C229.052 121.236 229.453 120.266 229.453 119.255C229.453 118.244 229.052 117.275 228.339 116.56C227.625 115.845 226.658 115.443 225.649 115.443H180.006C178.997 115.443 178.03 115.845 177.317 116.56C176.603 117.275 176.203 118.244 176.203 119.255C176.203 120.266 176.603 121.236 177.317 121.951C178.03 122.666 178.997 123.067 180.006 123.067ZM180.006 153.564H225.649C226.658 153.564 227.625 153.162 228.339 152.448C229.052 151.733 229.453 150.763 229.453 149.752C229.453 148.741 229.052 147.771 228.339 147.056C227.625 146.342 226.658 145.94 225.649 145.94H180.006C178.997 145.94 178.03 146.342 177.317 147.056C176.603 147.771 176.203 148.741 176.203 149.752C176.203 150.763 176.603 151.733 177.317 152.448C178.03 153.162 178.997 153.564 180.006 153.564ZM180.006 184.061H225.649C226.658 184.061 227.625 183.659 228.339 182.944C229.052 182.229 229.453 181.26 229.453 180.249C229.453 179.238 229.052 178.268 228.339 177.553C227.625 176.838 226.658 176.436 225.649 176.436H180.006C178.997 176.436 178.03 176.838 177.317 177.553C176.603 178.268 176.203 179.238 176.203 180.249C176.203 181.26 176.603 182.229 177.317 182.944C178.03 183.659 178.997 184.061 180.006 184.061ZM180.006 214.557H225.649C226.658 214.557 227.625 214.156 228.339 213.441C229.052 212.726 229.453 211.756 229.453 210.745C229.453 209.734 229.052 208.765 228.339 208.05C227.625 207.335 226.658 206.933 225.649 206.933H180.006C178.997 206.933 178.03 207.335 177.317 208.05C176.603 208.765 176.203 209.734 176.203 210.745C176.203 211.756 176.603 212.726 177.317 213.441C178.03 214.156 178.997 214.557 180.006 214.557Z" fill="#1BBDE3" fill-opacity="0.1"/>
</svg>
