<svg width="160" height="26" viewBox="0 0 160 26" fill="none" xmlns="http://www.w3.org/2000/svg">
<path fill-rule="evenodd" clip-rule="evenodd" d="M1.74996 2.07401H13.2647V0.38668H0V24.9936H1.74996V13.5338H12.3547V11.8816H1.74996V2.07401ZM30.0578 25.3803C33.7442 25.3803 36.7773 24.1851 39.1572 21.7947C41.5606 19.3809 42.7621 16.3577 42.7621 12.7253C42.7621 9.06941 41.5606 6.03457 39.1572 3.62073C36.7773 1.20693 33.7442 0 30.0578 0C26.3944 0 23.3611 1.20693 20.958 3.62073C18.5781 6.03457 17.3881 9.06941 17.3881 12.7253C17.3881 16.3343 18.5781 19.3457 20.958 21.7596C23.3611 24.1735 26.3944 25.3803 30.0578 25.3803ZM35.6923 22.2165C34.0358 23.1541 32.1693 23.6226 30.0928 23.6226C26.9429 23.6226 24.3295 22.5916 22.253 20.5292C20.1996 18.4435 19.1731 15.8422 19.1731 12.7253C19.1731 9.58499 20.1996 6.97195 22.253 4.88623C24.3295 2.80051 26.9429 1.75764 30.0928 1.75764C32.1693 1.75764 34.0358 2.23807 35.6923 3.1989C37.3491 4.13632 38.6441 5.43697 39.5772 7.10085C40.5106 8.76474 40.9772 10.6396 40.9772 12.7253C40.9772 14.7642 40.5106 16.6272 39.5772 18.3146C38.6441 19.9785 37.3491 21.279 35.6923 22.2165ZM58.3038 14.6587L64.4287 24.9936H66.4236L60.1938 14.5181C62.0137 14.2134 63.4837 13.4284 64.6037 12.1629C65.7236 10.8739 66.2836 9.33893 66.2836 7.55784C66.2836 5.47212 65.5602 3.76134 64.1137 2.42554C62.6903 1.06632 60.8819 0.38668 58.6888 0.38668H49.659V2.07401H51.409H58.5838C60.3103 2.07401 61.7218 2.5896 62.8187 3.62073C63.9387 4.65187 64.4986 5.96426 64.4986 7.55784C64.4986 9.12801 63.9502 10.4287 62.8537 11.4598C61.7568 12.4675 60.3338 12.9714 58.5838 12.9714H51.409H49.659V24.9936H51.409V14.6587H58.3038ZM87.3555 2.07401V0.38668H69.961V2.07401H77.7658V24.9936H79.5157V2.07401H87.3555ZM106.921 23.2711H94.8817V13.0417H105.626V11.3895H94.8817V2.07401H106.536V0.38668H93.1318V24.9936H106.921V23.2711ZM114.84 21.7947C117.196 24.1615 120.195 25.3451 123.835 25.3451C125.701 25.3451 127.416 25.0052 128.98 24.3257C130.543 23.6462 131.873 22.6735 132.969 21.408C134.066 20.1191 134.871 18.6075 135.384 16.8733H133.599C132.853 19.0059 131.616 20.6698 129.89 21.865C128.186 23.0366 126.168 23.6226 123.835 23.6226C121.781 23.6226 119.938 23.1657 118.305 22.2517C116.671 21.3142 115.4 20.0136 114.49 18.3497C113.58 16.6858 113.125 14.811 113.125 12.7253C113.125 10.6161 113.58 8.72959 114.49 7.0657C115.423 5.37837 116.695 4.07772 118.305 3.16375C119.938 2.22636 121.781 1.75764 123.835 1.75764C126.098 1.75764 128.07 2.32008 129.75 3.44497C131.43 4.54641 132.654 6.09313 133.424 8.08513H135.244C134.451 5.60099 133.028 3.64418 130.975 2.21462C128.945 0.761654 126.565 0.0351522 123.835 0.0351522C121.455 0.0351522 119.308 0.574184 117.395 1.65218C115.481 2.73021 113.988 4.24178 112.915 6.18688C111.865 8.10858 111.34 10.288 111.34 12.7253C111.34 16.4046 112.507 19.4278 114.84 21.7947ZM160 0.38668H158.215V11.3543H143.515V0.38668H141.765V24.9936H143.515V13.0768H158.215V24.9936H160V0.38668Z" fill="#F6F5FC"/>
</svg>
